<svg
  width="1200"
  height="700"
  viewBox="0 0 1200 700"
  fill="none"
  xmlns="http://www.w3.org/2000/svg"
>
  <g id="map1 1">
    <rect width="1200" height="700" fill="white" />
    <g id="route1">
      <path
        id="[Linked] Vector 1"
        d="M432.133 364.585C412.119 330.475 398.91 276.425 506.185 333.099C613.46 389.774 537.985 430.181 486.838 443.3"
        stroke="black"
      />
      <g id="[Copy] Rectangle 1">
        <path
          id="Rectangle 1"
          d="M429.949 384.676L410.779 352.005C410.36 351.29 410.659 350.507 411.449 350.255L432.129 343.656C432.919 343.405 433.898 343.78 434.318 344.494L453.487 377.165C453.907 377.88 453.607 378.663 452.818 378.915L432.137 385.514C431.348 385.766 430.368 385.39 429.949 384.676Z"
          fill="#D9D9D9"
          stroke="black"
        />
      </g>
      <g id="[Copy] Rectangle 1_2">
        <path
          id="Rectangle 1_2"
          d="M398.001 318.254L432.085 292.498C432.746 291.999 433.827 291.986 434.499 292.47L450.351 303.877C451.023 304.361 451.033 305.158 450.372 305.658L416.288 331.413C415.627 331.913 414.546 331.926 413.874 331.442L398.022 320.034C397.35 319.55 397.341 318.753 398.001 318.254Z"
          fill="#D9D9D9"
          stroke="black"
        />
      </g>
      <g id="[Copy] Rectangle 1_3">
        <path
          id="Rectangle 1_3"
          d="M477.705 307.763L518.741 327.596C519.487 327.957 519.646 328.751 519.095 329.37L507.125 342.839C506.574 343.458 505.524 343.668 504.778 343.308L463.741 323.474C462.995 323.114 462.837 322.32 463.387 321.701L475.358 308.232C475.908 307.612 476.959 307.403 477.705 307.763Z"
          fill="#D9D9D9"
          stroke="black"
        />
      </g>
      <g id="[Copy] Rectangle 1_4">
        <path
          id="Rectangle 1_4"
          d="M545.242 342.804L572.624 372.371C573.187 372.978 573.043 373.773 572.303 374.146L553.839 383.445C553.099 383.817 552.043 383.627 551.48 383.019L524.098 353.453C523.535 352.845 523.679 352.05 524.419 351.677L542.883 342.378C543.623 342.006 544.679 342.196 545.242 342.804Z"
          fill="#D9D9D9"
          stroke="black"
        />
      </g>
      <g id="[Copy] Rectangle 1_5">
        <path
          id="Rectangle 1_5"
          d="M573.114 405.51L543.21 433.803C542.608 434.372 541.538 434.499 540.82 434.086L523.241 423.982C522.522 423.57 522.428 422.773 523.03 422.204L552.933 393.911C553.535 393.341 554.605 393.214 555.323 393.627L572.903 403.731C573.621 404.144 573.715 404.94 573.114 405.51Z"
          fill="#D9D9D9"
          stroke="black"
        />
      </g>
      <g id="[Copy] Rectangle 1_6">
        <path
          id="Rectangle 1_6"
          d="M514.649 446.031L468.155 458.048C467.353 458.255 466.414 457.817 466.059 457.069L458.949 442.111C458.594 441.363 458.956 440.588 459.758 440.38L506.252 428.364C507.055 428.156 507.993 428.595 508.349 429.343L515.458 444.301C515.813 445.049 515.452 445.824 514.649 446.031Z"
          fill="#D9D9D9"
          stroke="black"
        />
      </g>
    </g>
    <g id="station">
      <circle
        id="station_shape"
        cx="135.5"
        cy="256.5"
        r="24.5"
        fill="#D9D9D9"
      />
      <path
        id="title"
        d="M133.557 216.92L132.653 217.176C132.597 217.026 132.513 216.879 132.402 216.737C132.294 216.592 132.146 216.473 131.959 216.379C131.771 216.286 131.531 216.239 131.239 216.239C130.838 216.239 130.504 216.331 130.237 216.516C129.973 216.697 129.841 216.929 129.841 217.21C129.841 217.46 129.932 217.658 130.114 217.803C130.295 217.947 130.58 218.068 130.966 218.165L131.938 218.403C132.523 218.545 132.959 218.763 133.246 219.055C133.533 219.345 133.676 219.719 133.676 220.176C133.676 220.551 133.568 220.886 133.352 221.182C133.139 221.477 132.841 221.71 132.457 221.881C132.074 222.051 131.628 222.136 131.119 222.136C130.452 222.136 129.899 221.991 129.462 221.702C129.024 221.412 128.747 220.989 128.631 220.432L129.585 220.193C129.676 220.545 129.848 220.81 130.101 220.986C130.357 221.162 130.69 221.25 131.102 221.25C131.571 221.25 131.943 221.151 132.219 220.952C132.497 220.75 132.636 220.509 132.636 220.227C132.636 220 132.557 219.81 132.398 219.656C132.239 219.5 131.994 219.384 131.665 219.307L130.574 219.051C129.974 218.909 129.534 218.689 129.253 218.391C128.974 218.089 128.835 217.713 128.835 217.261C128.835 216.892 128.939 216.565 129.146 216.281C129.357 215.997 129.642 215.774 130.003 215.612C130.366 215.45 130.778 215.369 131.239 215.369C131.886 215.369 132.395 215.511 132.764 215.795C133.136 216.08 133.401 216.455 133.557 216.92ZM138.037 215.455V216.307H134.645V215.455H138.037ZM135.633 213.886H136.639V220.125C136.639 220.409 136.68 220.622 136.762 220.764C136.848 220.903 136.956 220.997 137.086 221.045C137.22 221.091 137.36 221.114 137.508 221.114C137.619 221.114 137.71 221.108 137.781 221.097C137.852 221.082 137.909 221.071 137.951 221.062L138.156 221.966C138.088 221.991 137.993 222.017 137.87 222.043C137.748 222.071 137.593 222.085 137.406 222.085C137.122 222.085 136.843 222.024 136.571 221.902C136.301 221.78 136.076 221.594 135.897 221.344C135.721 221.094 135.633 220.778 135.633 220.398V213.886ZM141.475 222.153C141.061 222.153 140.684 222.075 140.346 221.919C140.008 221.76 139.74 221.531 139.541 221.233C139.342 220.932 139.243 220.568 139.243 220.142C139.243 219.767 139.316 219.463 139.464 219.23C139.612 218.994 139.809 218.81 140.056 218.676C140.304 218.543 140.576 218.443 140.875 218.378C141.176 218.31 141.478 218.256 141.782 218.216C142.18 218.165 142.502 218.126 142.75 218.101C143 218.072 143.181 218.026 143.295 217.96C143.412 217.895 143.47 217.781 143.47 217.619V217.585C143.47 217.165 143.355 216.838 143.125 216.605C142.897 216.372 142.552 216.256 142.089 216.256C141.609 216.256 141.233 216.361 140.96 216.571C140.687 216.781 140.495 217.006 140.385 217.244L139.43 216.903C139.6 216.506 139.828 216.196 140.112 215.974C140.399 215.75 140.711 215.594 141.049 215.506C141.39 215.415 141.725 215.369 142.055 215.369C142.265 215.369 142.507 215.395 142.779 215.446C143.055 215.494 143.321 215.595 143.576 215.749C143.835 215.902 144.049 216.134 144.22 216.443C144.39 216.753 144.475 217.168 144.475 217.688V222H143.47V221.114H143.419C143.35 221.256 143.237 221.408 143.078 221.57C142.919 221.732 142.707 221.869 142.443 221.983C142.179 222.097 141.856 222.153 141.475 222.153ZM141.629 221.25C142.027 221.25 142.362 221.172 142.635 221.016C142.91 220.859 143.118 220.658 143.257 220.411C143.399 220.163 143.47 219.903 143.47 219.631V218.71C143.427 218.761 143.333 218.808 143.189 218.851C143.047 218.891 142.882 218.926 142.694 218.957C142.51 218.986 142.329 219.011 142.153 219.034C141.98 219.054 141.839 219.071 141.731 219.085C141.47 219.119 141.225 219.175 140.998 219.251C140.774 219.325 140.592 219.437 140.453 219.588C140.316 219.736 140.248 219.937 140.248 220.193C140.248 220.543 140.377 220.807 140.636 220.986C140.897 221.162 141.228 221.25 141.629 221.25ZM149.158 215.455V216.307H145.766V215.455H149.158ZM146.754 213.886H147.76V220.125C147.76 220.409 147.801 220.622 147.884 220.764C147.969 220.903 148.077 220.997 148.207 221.045C148.341 221.091 148.482 221.114 148.629 221.114C148.74 221.114 148.831 221.108 148.902 221.097C148.973 221.082 149.03 221.071 149.072 221.062L149.277 221.966C149.209 221.991 149.114 222.017 148.991 222.043C148.869 222.071 148.714 222.085 148.527 222.085C148.243 222.085 147.964 222.024 147.692 221.902C147.422 221.78 147.197 221.594 147.018 221.344C146.842 221.094 146.754 220.778 146.754 220.398V213.886ZM150.67 222V215.455H151.676V222H150.67ZM151.182 214.364C150.986 214.364 150.817 214.297 150.675 214.163C150.536 214.03 150.466 213.869 150.466 213.682C150.466 213.494 150.536 213.334 150.675 213.2C150.817 213.067 150.986 213 151.182 213C151.378 213 151.545 213.067 151.685 213.2C151.827 213.334 151.898 213.494 151.898 213.682C151.898 213.869 151.827 214.03 151.685 214.163C151.545 214.297 151.378 214.364 151.182 214.364ZM156.177 222.136C155.586 222.136 155.068 221.996 154.622 221.714C154.179 221.433 153.832 221.04 153.582 220.534C153.335 220.028 153.211 219.437 153.211 218.761C153.211 218.08 153.335 217.484 153.582 216.976C153.832 216.467 154.179 216.072 154.622 215.791C155.068 215.51 155.586 215.369 156.177 215.369C156.768 215.369 157.285 215.51 157.728 215.791C158.174 216.072 158.521 216.467 158.768 216.976C159.018 217.484 159.143 218.08 159.143 218.761C159.143 219.437 159.018 220.028 158.768 220.534C158.521 221.04 158.174 221.433 157.728 221.714C157.285 221.996 156.768 222.136 156.177 222.136ZM156.177 221.233C156.626 221.233 156.995 221.118 157.285 220.888C157.575 220.658 157.789 220.355 157.929 219.98C158.068 219.605 158.137 219.199 158.137 218.761C158.137 218.324 158.068 217.916 157.929 217.538C157.789 217.161 157.575 216.855 157.285 216.622C156.995 216.389 156.626 216.273 156.177 216.273C155.728 216.273 155.359 216.389 155.069 216.622C154.779 216.855 154.565 217.161 154.426 217.538C154.287 217.916 154.217 218.324 154.217 218.761C154.217 219.199 154.287 219.605 154.426 219.98C154.565 220.355 154.779 220.658 155.069 220.888C155.359 221.118 155.728 221.233 156.177 221.233ZM161.684 218.062V222H160.678V215.455H161.65V216.477H161.735C161.888 216.145 162.121 215.878 162.434 215.676C162.746 215.472 163.15 215.369 163.644 215.369C164.087 215.369 164.475 215.46 164.808 215.642C165.14 215.821 165.398 216.094 165.583 216.46C165.768 216.824 165.86 217.284 165.86 217.841V222H164.854V217.909C164.854 217.395 164.721 216.994 164.454 216.707C164.187 216.418 163.82 216.273 163.354 216.273C163.033 216.273 162.746 216.342 162.494 216.482C162.244 216.621 162.046 216.824 161.901 217.091C161.756 217.358 161.684 217.682 161.684 218.062ZM170.268 213.273V222H169.212V214.381H169.161L167.03 215.795V214.722L169.212 213.273H170.268Z"
        fill="black"
      />
    </g>
  </g>
</svg>
